<?xml version="1.0" encoding="utf-8"?>
<!-- Generator: Adobe Illustrator 16.0.0, SVG Export Plug-In . SVG Version: 6.00 Build 0)  -->
<!DOCTYPE svg PUBLIC "-//W3C//DTD SVG 1.1//EN" "http://www.w3.org/Graphics/SVG/1.1/DTD/svg11.dtd">
<svg version="1.1" id="圖層_1" xmlns="http://www.w3.org/2000/svg" xmlns:xlink="http://www.w3.org/1999/xlink" x="0px" y="0px"
	 width="65px" height="65px" viewBox="0 0 65 65" enable-background="new 0 0 65 65" xml:space="preserve">
<circle fill="#009844" cx="32.5" cy="32.353" r="31.353"/>
<g>
	<path fill="#FFFFFF" d="M53.632,30.633c-0.175-0.144-0.403-0.201-0.625-0.158L47.92,31.48c-0.354,0.07-0.607,0.379-0.607,0.739
		V32.8h-2.576v-0.429c0-1.333-1.125-2.418-2.512-2.418H39.85c2.986-1.331,5.074-4.327,5.074-7.802c0-4.709-3.831-8.54-8.54-8.54
		c-3.477,0-6.473,2.089-7.804,5.078c-1.331-2.989-4.328-5.078-7.804-5.078c-4.709,0-8.541,3.831-8.541,8.54
		c0,3.476,2.089,6.471,5.075,7.802h-2.341c-1.337,0-2.43,1.012-2.505,2.281l-2.317-0.366c-0.218-0.034-0.44,0.029-0.607,0.172
		s-0.264,0.352-0.264,0.573v4.96c0,0.221,0.096,0.43,0.264,0.573c0.138,0.117,0.311,0.181,0.49,0.181
		c0.039,0,0.078-0.003,0.118-0.009l2.31-0.365v5.65c0,1.332,1.127,2.416,2.512,2.416h5.181v3.33c0,0.416,0.338,0.752,0.754,0.752
		H36.29c0.417,0,0.753-0.336,0.753-0.752v-3.33h5.182c1.385,0,2.514-1.084,2.514-2.416v-1.258h2.574v0.581
		c0,0.36,0.254,0.669,0.607,0.74l5.088,1.004c0.049,0.009,0.098,0.015,0.146,0.015c0.173,0,0.341-0.062,0.479-0.172
		c0.174-0.143,0.275-0.355,0.275-0.582V31.216C53.906,30.989,53.807,30.777,53.632,30.633L53.632,30.633z M36.383,15.119
		c3.877,0,7.033,3.155,7.033,7.032c0,3.878-3.156,7.033-7.033,7.033c-3.878,0-7.033-3.155-7.033-7.033
		C29.35,18.274,32.505,15.119,36.383,15.119L36.383,15.119z M13.742,22.151c0-3.877,3.155-7.032,7.033-7.032
		c3.877,0,7.033,3.155,7.033,7.032c0,3.173-2.112,5.86-5.003,6.733v-6.607c0.002-0.042,0.007-0.083,0.007-0.125
		c0-1.123-0.913-2.036-2.036-2.036s-2.036,0.913-2.036,2.036h-0.006v6.729C15.848,28.003,13.742,25.319,13.742,22.151L13.742,22.151
		z M20.24,24.114c0.171,0.046,0.35,0.074,0.536,0.074c0.181,0,0.355-0.026,0.522-0.071v5.046c-0.172,0.013-0.347,0.021-0.522,0.021
		c-0.18,0-0.359-0.008-0.536-0.022V24.114z M21.298,22.151v0.063c-0.031,0.262-0.252,0.466-0.522,0.466
		c-0.292,0-0.529-0.237-0.529-0.528c0-0.292,0.238-0.528,0.529-0.528s0.529,0.236,0.529,0.528L21.298,22.151L21.298,22.151z
		 M28.58,25.613c0.857,1.928,2.41,3.48,4.338,4.34h-8.677C26.168,29.094,27.72,27.541,28.58,25.613L28.58,25.613z M13.964,39.361
		v-6.99c0-0.502,0.451-0.91,1.005-0.91l0,0h27.255c0.555,0,1.004,0.408,1.004,0.91v6.99 M10.783,36.691v-3.196l1.674,0.265v2.667
		L10.783,36.691z M35.536,48.596H21.657v-2.574h13.879V48.596z M36.29,44.514H14.969c-0.554,0-1.005-0.451-1.005-1.006V40.87H43.23
		v2.638c0,0.555-0.451,1.006-1.006,1.006H36.29z M44.736,40.839v-6.53h2.576v6.53H44.736z M52.398,43.016l-3.58-0.707V32.84
		l3.58-0.707V43.016z"/>
	<path fill="#FFFFFF" d="M36.383,24.188c1.122,0,2.036-0.913,2.036-2.036s-0.914-2.036-2.036-2.036
		c-1.123,0-2.035,0.913-2.035,2.036C34.348,23.274,35.262,24.188,36.383,24.188L36.383,24.188z M36.383,21.624
		c0.291,0,0.528,0.236,0.528,0.527s-0.237,0.529-0.528,0.529c-0.292,0-0.527-0.238-0.527-0.529S36.091,21.624,36.383,21.624
		L36.383,21.624z"/>
</g>
</svg>
