<?xml version="1.0" encoding="utf-8"?>
<!-- Generator: Adobe Illustrator 16.0.0, SVG Export Plug-In . SVG Version: 6.00 Build 0)  -->
<!DOCTYPE svg PUBLIC "-//W3C//DTD SVG 1.1//EN" "http://www.w3.org/Graphics/SVG/1.1/DTD/svg11.dtd">
<svg version="1.1" id="圖層_1" xmlns="http://www.w3.org/2000/svg" xmlns:xlink="http://www.w3.org/1999/xlink" x="0px" y="0px"
	 width="200px" height="200px" viewBox="0 0 200 200" enable-background="new 0 0 200 200" xml:space="preserve">
<g>
	<g>
		<g>
			<path fill="#949495" d="M86.244,52.032c-0.512-1.228-1.922-1.81-3.149-1.297C67.437,57.26,60.033,67.851,56.581,75.588
				c-2.28,5.107-3.184,9.643-3.542,12.484l-13.897-3.725c-0.856-0.23-1.772,0.031-2.38,0.68c-0.607,0.647-0.81,1.577-0.524,2.42
				l11.13,32.901c0.258,0.762,0.88,1.346,1.658,1.555c0.205,0.055,0.415,0.082,0.623,0.082c0.578,0,1.145-0.209,1.59-0.601
				l26.089-22.928c0.668-0.587,0.958-1.493,0.756-2.357c-0.202-0.865-0.864-1.549-1.722-1.778l-10.935-2.93
				c-1.285-0.344-2.605,0.418-2.949,1.703c-0.345,1.284,0.418,2.604,1.703,2.949l6.588,1.766l-19.996,17.573l-8.531-25.217
				l12.349,3.309c0.724,0.194,1.498,0.039,2.093-0.419c0.595-0.458,0.941-1.166,0.939-1.916
				c-0.001-0.245,0.228-24.667,27.325-35.958C86.176,54.67,86.756,53.26,86.244,52.032z"/>
		</g>
	</g>
	<g>
		<g>
			<path fill="#949495" d="M149.132,75.313c-3.284-4.529-6.76-7.578-9.042-9.311l10.174-10.173c0.629-0.628,0.859-1.551,0.604-2.4
				c-0.256-0.849-0.963-1.489-1.833-1.664l-34.06-6.812c-0.789-0.157-1.605,0.09-2.175,0.658c-0.569,0.569-0.815,1.386-0.659,2.176
				l6.813,34.058c0.174,0.872,0.813,1.576,1.663,1.833c0.851,0.256,1.773,0.026,2.4-0.602l8.004-8.005c0.94-0.94,0.94-2.466,0-3.406
				c-0.939-0.939-2.465-0.939-3.404,0l-4.823,4.823l-5.221-26.104l26.104,5.22l-9.04,9.04c-0.529,0.529-0.779,1.275-0.683,2.018
				c0.097,0.741,0.536,1.397,1.185,1.772c0.868,0.503,21.235,12.657,17.481,41.646c-0.171,1.318,0.76,2.527,2.079,2.697
				c0.104,0.014,0.209,0.021,0.313,0.021c1.192,0,2.229-0.886,2.387-2.1C159.575,93.878,154.105,82.172,149.132,75.313z"/>
		</g>
	</g>
	<g>
		<g>
			<path fill="#949495" d="M145.771,135.969c-0.207-0.777-0.791-1.398-1.554-1.658l-32.901-11.129
				c-0.842-0.285-1.771-0.084-2.418,0.523c-0.648,0.607-0.908,1.521-0.68,2.38l2.93,10.935c0.345,1.285,1.664,2.047,2.949,1.705
				c1.284-0.346,2.047-1.666,1.702-2.951l-1.765-6.588l25.217,8.53l-17.572,19.996l-3.31-12.349
				c-0.194-0.725-0.716-1.317-1.408-1.604c-0.694-0.284-1.479-0.231-2.129,0.146c-0.213,0.123-21.477,12.138-44.804-5.686
				c-1.058-0.808-2.569-0.604-3.376,0.451c-0.808,1.059-0.605,2.568,0.451,3.376c13.479,10.299,26.354,11.415,34.78,10.536
				c5.563-0.579,9.943-2.064,12.583-3.175l3.725,13.897c0.229,0.856,0.912,1.52,1.777,1.721c0.182,0.043,0.365,0.063,0.549,0.063
				c0.684,0,1.346-0.292,1.809-0.819l22.928-26.09C145.787,137.577,145.98,136.747,145.771,135.969z"/>
		</g>
	</g>
</g>
<g>
	<path fill="#949495" d="M100,1.99c54.043,0,98.01,43.967,98.01,98.01s-43.967,98.01-98.01,98.01S1.99,154.043,1.99,100
		S45.957,1.99,100,1.99 M100,1C45.324,1,1,45.324,1,100c0,54.676,44.324,99,99,99c54.676,0,99-44.324,99-99
		C199,45.324,154.676,1,100,1L100,1z"/>
</g>
</svg>
