<?xml version="1.0" encoding="utf-8"?>
<!-- Generator: Adobe Illustrator 16.0.0, SVG Export Plug-In . SVG Version: 6.00 Build 0)  -->
<!DOCTYPE svg PUBLIC "-//W3C//DTD SVG 1.1//EN" "http://www.w3.org/Graphics/SVG/1.1/DTD/svg11.dtd">
<svg version="1.1" id="圖層_1" xmlns="http://www.w3.org/2000/svg" xmlns:xlink="http://www.w3.org/1999/xlink" x="0px" y="0px"
	 width="200px" height="200px" viewBox="0 0 200 200" enable-background="new 0 0 200 200" xml:space="preserve">
<g>
	<g>
		<path fill="#949495" d="M147.307,141.48l-2.002-0.801c10.063-11.193,15.584-25.57,15.584-40.681
			c0-12.361-3.736-24.256-10.545-34.254c-0.084-0.162-0.186-0.309-0.305-0.437c-2.982-4.299-6.533-8.242-10.607-11.708
			c-0.811-0.688-2.022-0.59-2.711,0.22c-0.688,0.808-0.59,2.021,0.219,2.71c3.269,2.78,6.179,5.889,8.701,9.253
			c-4.067,1.59-8.955,2.938-14.408,4.002c-1.506-4.486-3.354-8.668-5.53-12.442c-2.933-5.086-6.306-9.182-9.979-12.194
			c5.721,1.636,11.17,4.17,16.172,7.548c0.879,0.595,2.073,0.363,2.67-0.518c0.594-0.879,0.36-2.074-0.519-2.669
			c-10.069-6.804-21.844-10.4-34.045-10.4c-16.266,0-31.555,6.334-43.057,17.835C45.444,68.445,39.11,83.736,39.11,100
			c0,15.129,5.531,29.508,15.609,40.705l-1.977,0.773c-0.727,0.263-6.914,2.729-6.914,10.597v6.89c0,1.063,0.861,1.926,1.924,1.926
			h11.061h1.721h2.051h9.84h3.631c0.092,0,0.184-0.01,0.271-0.021c0.09,0.013,0.18,0.021,0.273,0.021h7.822
			c1.064,0,1.924-0.861,1.924-1.924s-0.861-1.923-1.924-1.923h-5.9v-6.696c0-7.064,5.551-9.098,5.773-9.177
			c0.031-0.01,0.061-0.021,0.09-0.032l9.363-3.666c0.02,0.021,0.039,0.045,0.061,0.065l4.977,4.847
			c0.359,0.35,0.84,0.545,1.342,0.545c0.01,0,0.02,0,0.029,0c0.512-0.008,1-0.22,1.354-0.589l4.777-4.957l9.352,3.749
			c0.033,0.014,0.058,0.021,0.09,0.034c0.238,0.083,5.787,2.114,5.787,9.181v6.696h-14.063H92.586h-2.152
			c-1.063,0-1.924,0.86-1.924,1.923s0.861,1.924,1.924,1.924h2.152h14.867h15.988l0,0l0,0h2.453h1.721h2.053h9.838h12.783
			c1.061,0,1.922-0.875,1.922-1.938v-6.878C154.211,144.239,148.072,141.76,147.307,141.48z M141.488,139.148l-1.896-0.762v-1.094
			c2.096-1.229,3.705-3.195,4.471-5.543c2.797-0.223,5.006-2.563,5.006-5.416c0-1.697-0.78-3.214-2.004-4.212v-3.418
			c0-6.589-4.942-12.041-11.315-12.851c0.071-1.304,0.123-2.617,0.146-3.933h21.113
			C156.545,115.841,151.078,128.988,141.488,139.148z M134.545,134.818h-1.754c-3.396,0-6.16-2.764-6.16-6.16v-5.088l0,0
			c2.504-0.271,6.941-1.146,10.359-4.002c0.766,1.313,1.949,2.732,3.717,3.563v5.526
			C140.707,132.057,137.943,134.818,134.545,134.818z M135.746,138.591v1.065l-2.143,2.224l-2.015-1.961v-1.328
			c0.396,0.048,0.795,0.074,1.201,0.074h1.754C134.953,138.665,135.352,138.639,135.746,138.591z M124.713,119.85
			c-0.002,0-0.004,0-0.006,0c-0.066,0-0.131,0.004-0.197,0.012c-0.02,0.002-0.041,0.007-0.061,0.009
			c-0.043,0.006-0.086,0.012-0.129,0.021c-0.029,0.006-0.057,0.016-0.086,0.021c-0.033,0.008-0.066,0.016-0.098,0.025
			c-0.021,0.006-0.041,0.016-0.063,0.021v-1.254c0-5.023,4.09-9.112,9.112-9.112h0.92c5.023,0,9.111,4.089,9.111,9.112v1.236
			c-0.035-0.012-0.072-0.02-0.109-0.028c-0.018-0.005-0.034-0.011-0.053-0.015c-2.682-0.61-3.557-4.188-3.563-4.215
			c-0.166-0.736-0.75-1.309-1.49-1.459c-0.739-0.152-1.5,0.145-1.942,0.756C132.578,119.795,124.814,119.85,124.713,119.85z
			 M144.553,127.631v-2.592c0.404,0.289,0.67,0.762,0.67,1.296S144.957,127.342,144.553,127.631z M147.898,69.021
			c5.569,8.604,8.76,18.621,9.108,29.057h-21.112c-0.156-8.655-1.365-17.003-3.521-24.605
			C138.283,72.298,143.555,70.797,147.898,69.021z M132.049,98.078h-19.68c-0.004,0-0.004,0-0.008,0
			c-2.621-2.9-6.312-4.816-10.439-5.135V76.408c9.436-0.095,18.541-0.879,26.654-2.242
			C130.699,81.518,131.891,89.636,132.049,98.078z M115.086,118.156c0,1.131-0.764,2.085-1.803,2.378v-4.757
			C114.322,116.07,115.086,117.025,115.086,118.156z M101.922,43.063c7.652,0.817,14.852,6.495,20.447,16.202
			c1.963,3.406,3.65,7.169,5.039,11.206c-7.752,1.27-16.453,2-25.486,2.091V43.063L101.922,43.063z M100.703,96.736
			c6.549,0,11.879,5.329,11.879,11.879v2.35c-0.014-0.011-0.027-0.02-0.041-0.029c-0.027-0.021-0.057-0.043-0.086-0.063
			c-0.021-0.016-0.045-0.029-0.068-0.045c-0.029-0.02-0.057-0.036-0.088-0.053c-0.027-0.017-0.055-0.029-0.084-0.045
			c-0.025-0.013-0.053-0.025-0.08-0.039c-0.033-0.015-0.068-0.025-0.104-0.039c-0.023-0.01-0.049-0.019-0.072-0.026
			c-0.039-0.013-0.078-0.022-0.119-0.033c-0.016-0.005-0.033-0.011-0.053-0.016c-3.652-0.83-4.809-5.593-4.818-5.636
			c-0.168-0.735-0.75-1.307-1.49-1.459c-0.74-0.15-1.5,0.146-1.942,0.759c-4.504,6.225-14.449,6.288-14.582,6.288l0,0
			c-0.002,0-0.004,0-0.006,0c-0.066,0-0.133,0.004-0.195,0.011c-0.021,0.002-0.041,0.006-0.061,0.009
			c-0.045,0.006-0.088,0.012-0.131,0.02c-0.027,0.007-0.055,0.016-0.082,0.021c-0.033,0.01-0.068,0.018-0.102,0.026
			c-0.031,0.01-0.063,0.022-0.092,0.034c-0.027,0.011-0.057,0.019-0.086,0.029c-0.035,0.016-0.068,0.032-0.102,0.051
			c-0.021,0.01-0.043,0.02-0.064,0.03c-0.035,0.019-0.068,0.04-0.102,0.062c-0.018,0.012-0.037,0.021-0.057,0.035
			c-0.031,0.021-0.061,0.043-0.092,0.065c-0.018,0.017-0.039,0.028-0.057,0.044s-0.035,0.031-0.053,0.047v-2.396
			c0-6.551,5.328-11.879,11.879-11.879h1.152V96.736z M67.951,98.078c0.158-8.443,1.35-16.563,3.473-23.916
			c8.123,1.365,17.238,2.151,26.652,2.246v16.555c-4.031,0.378-7.623,2.28-10.193,5.127c-0.07-0.007-0.141-0.012-0.213-0.012H67.951
			L67.951,98.078z M87.025,115.758v4.797c-1.08-0.267-1.881-1.238-1.881-2.397S85.945,116.023,87.025,115.758z M98.076,43.063
			v29.499c-9.012-0.091-17.721-0.825-25.484-2.097c1.391-4.034,3.074-7.795,5.039-11.2C83.225,49.558,90.426,43.88,98.076,43.063z
			 M84.256,45.167c-3.666,3.011-7.031,7.1-9.957,12.177c-2.176,3.773-4.025,7.953-5.531,12.438
			c-5.447-1.063-10.324-2.406-14.387-3.991C61.744,55.995,72.188,48.638,84.256,45.167z M52.117,69.029
			c4.334,1.771,9.605,3.265,15.512,4.438c-2.158,7.604-3.367,15.954-3.525,24.611H42.99C43.348,87.396,46.652,77.45,52.117,69.029z
			 M64.508,138.591c0.395,0.048,0.795,0.074,1.201,0.074h1.754c0.406,0,0.807-0.026,1.201-0.074v1.065l-2.143,2.223l-2.014-1.96
			L64.508,138.591L64.508,138.591z M67.463,134.818h-1.754c-3.396,0-6.162-2.764-6.162-6.16v-5.086
			c2.506-0.271,6.939-1.147,10.359-4.004c0.766,1.313,1.951,2.733,3.719,3.563v5.526C73.623,132.057,70.859,134.818,67.463,134.818z
			 M72.41,115.684c-0.166-0.736-0.75-1.308-1.49-1.459c-0.74-0.151-1.5,0.146-1.943,0.758c-3.484,4.815-11.252,4.867-11.346,4.867
			c-0.002,0-0.004,0-0.006,0c-0.066,0-0.133,0.004-0.197,0.012c-0.02,0.002-0.039,0.007-0.059,0.009
			c-0.045,0.006-0.088,0.012-0.131,0.021c-0.027,0.006-0.055,0.014-0.082,0.021c-0.033,0.009-0.068,0.016-0.102,0.026
			c-0.021,0.006-0.041,0.016-0.063,0.021v-1.254c0-5.023,4.088-9.112,9.113-9.112h0.92c5.025,0,9.113,4.089,9.113,9.112v1.238
			h-0.002c-0.037-0.014-0.074-0.021-0.113-0.031c-0.016-0.004-0.031-0.01-0.049-0.014C73.293,119.288,72.418,115.71,72.41,115.684z
			 M42.99,101.923h21.113c0.023,1.324,0.076,2.646,0.148,3.959c-6.27,0.902-11.105,6.308-11.105,12.823v3.402
			c-1.232,0.998-2.023,2.521-2.023,4.228c0,2.874,2.244,5.229,5.07,5.419c0.766,2.346,2.375,4.313,4.469,5.54v1.083l-2.1,0.822
			C48.938,129.031,43.453,115.871,42.99,101.923z M55.701,124.997v2.676c-0.439-0.282-0.732-0.776-0.732-1.338
			S55.262,125.281,55.701,124.997z M74.676,150.348v6.696h-2.254h-9.838h-2.051h-1.721h-9.139v-4.969
			c0-5.361,4.191-6.914,4.354-6.972c0.031-0.012,0.061-0.021,0.09-0.033l7.252-2.84l3.854,3.752c0.359,0.351,0.84,0.547,1.342,0.547
			c0.01,0,0.02,0,0.029-0.002c0.514-0.008,1-0.219,1.355-0.588l3.639-3.777l4.5,1.805C75.234,145.713,74.676,147.828,74.676,150.348
			z M93.227,133.545l-10.205,3.997c-1.299,0.447-3.098,1.479-4.693,3.181l-5.818-2.334v-1.094c2.094-1.229,3.705-3.197,4.469-5.544
			c2.799-0.222,5.008-2.563,5.008-5.416c0-1.696-0.781-3.214-2.004-4.212v-3.418c0-6.783-5.24-12.361-11.883-12.91
			c-0.074-1.281-0.125-2.576-0.148-3.872H85.33c-0.961,2.032-1.5,4.3-1.5,6.692v4.486c-1.535,1.153-2.531,2.989-2.531,5.055
			c0,3.451,2.783,6.264,6.223,6.316c0.902,3.047,2.98,5.594,5.707,7.11v1.962H93.227z M77.471,127.631v-2.593
			c0.404,0.289,0.67,0.763,0.67,1.297S77.875,127.342,77.471,127.631z M103.234,134.889c0,0.002,0,0.004,0,0.006v0.116l-3.15,3.271
			l-3.012-2.932v-2.42c0.646,0.106,1.309,0.166,1.986,0.166h2.193c0.676,0,1.336-0.06,1.981-0.166v1.959H103.234z M101.252,129.25
			h-2.193c-4.516,0-8.189-3.673-8.189-8.188v-6.789c3.068-0.282,9.137-1.351,13.569-5.33c0.937,1.771,2.502,3.826,4.998,4.894v7.226
			C109.438,125.577,105.766,129.25,101.252,129.25z M121.723,140.734c-1.594-1.705-3.395-2.74-4.697-3.189l-9.944-3.988v-1.973
			c2.729-1.518,4.808-4.064,5.709-7.113c3.401-0.095,6.144-2.89,6.144-6.313c0-2.054-0.984-3.88-2.507-5.034v-4.507
			c0-2.394-0.538-4.66-1.5-6.692h17.123c-0.024,1.301-0.075,2.6-0.149,3.891c-6.543,0.647-11.67,6.183-11.67,12.893v3.402
			c-1.232,0.998-2.023,2.521-2.023,4.228c0,2.874,2.244,5.229,5.07,5.419c0.766,2.346,2.375,4.313,4.469,5.54v1.083L121.723,140.734
			z M122.783,124.997v2.676c-0.439-0.282-0.73-0.776-0.73-1.338S122.344,125.279,122.783,124.997z M150.365,157.044h-10.859h-9.838
			h-2.051h-1.723h-0.531v-6.696c0-2.51-0.553-4.617-1.4-6.358l4.49-1.759l3.852,3.754c0.359,0.35,0.842,0.546,1.342,0.546
			c0.011,0,0.021,0,0.031-0.001c0.512-0.008,0.998-0.219,1.354-0.588l3.641-3.778l7.236,2.901c0.034,0.015,0.053,0.021,0.088,0.033
			c0.178,0.063,4.369,1.617,4.369,6.979L150.365,157.044L150.365,157.044z"/>
	</g>
</g>
<g>
	<path fill="#949495" d="M100,1.99c54.043,0,98.01,43.967,98.01,98.01s-43.967,98.01-98.01,98.01S1.99,154.043,1.99,100
		S45.957,1.99,100,1.99 M100,1C45.324,1,1,45.324,1,100c0,54.676,44.324,99,99,99c54.676,0,99-44.324,99-99
		C199,45.324,154.676,1,100,1L100,1z"/>
</g>
</svg>
