<?xml version="1.0" encoding="utf-8"?>
<!-- Generator: Adobe Illustrator 16.0.0, SVG Export Plug-In . SVG Version: 6.00 Build 0)  -->
<!DOCTYPE svg PUBLIC "-//W3C//DTD SVG 1.1//EN" "http://www.w3.org/Graphics/SVG/1.1/DTD/svg11.dtd">
<svg version="1.1" id="圖層_1" xmlns="http://www.w3.org/2000/svg" xmlns:xlink="http://www.w3.org/1999/xlink" x="0px" y="0px"
	 width="200px" height="200px" viewBox="0 0 200 200" enable-background="new 0 0 200 200" xml:space="preserve">
<g>
	<path fill="#949495" d="M100,1.99c54.043,0,98.01,43.967,98.01,98.01s-43.967,98.01-98.01,98.01S1.99,154.043,1.99,100
		S45.957,1.99,100,1.99 M100,1C45.324,1,1,45.324,1,100c0,54.676,44.324,99,99,99c54.676,0,99-44.324,99-99
		C199,45.324,154.676,1,100,1L100,1z"/>
</g>
<g>
	<g>
		<g>
			<path fill="#949495" d="M159.654,82.89c-1.943,0-3.771,0.757-5.146,2.132L144.12,95.41V71.299c1.213,2.474,1.901,5.18,1.901,7.79
				h3.802c0-6.758,6.813-17.11,15.209-17.11v-3.803c-9.239,0-15.209-5.971-15.209-15.208h-3.802c0,2.73-0.691,5.266-1.901,7.458
				V46.77c0-3.144-2.56-5.703-5.703-5.703H54.77c-3.145,0-5.703,2.56-5.703,5.703v106.46c0,3.145,2.559,5.703,5.703,5.703h83.647
				c3.144,0,5.704-2.56,5.704-5.703v-37.235l20.68-20.682c1.376-1.372,2.133-3.199,2.133-5.146
				C166.934,86.156,163.669,82.89,159.654,82.89z M147.783,51.673c1.837,4.074,5.031,7.139,9.213,8.829
				c-3.898,2.345-6.991,6.188-8.887,10.214c-1.899-4.5-5.24-8.25-9.286-10.444C142.717,58.505,145.868,55.475,147.783,51.673z
				 M140.318,153.229L140.318,153.229c0,1.051-0.854,1.901-1.901,1.901H54.77c-1.048,0-1.901-0.853-1.901-1.901V46.77
				c0-1.049,0.853-1.9,1.901-1.9h83.647c1.047,0,1.901,0.852,1.901,1.9v8.141c-2.588,2.048-5.875,3.266-9.506,3.266v3.802
				c3.668,0,6.94,1.618,9.506,4.081v33.154l-26.616,26.615V115.21h-13.307v13.308h10.621l-0.558,0.558l-0.259,0.259l-7.721,18.016
				l18.015-7.722l19.825-19.828V153.229z M116.076,137.379l-6.357,2.725l2.725-6.356L116.076,137.379z M109.9,119.011v5.703h-5.703
				v-5.703H109.9z M119.407,135.334l-4.917-4.917l33.432-33.433l4.916,4.917L119.407,135.334z M162.113,92.626l-6.586,6.587
				l-4.916-4.916l6.584-6.585c0.658-0.658,1.531-1.02,2.459-1.02c1.918,0,3.477,1.559,3.477,3.476
				C163.131,91.084,162.76,91.978,162.113,92.626z"/>
			<path fill="#949495" d="M73.781,77.187c6.291,0,11.407-5.115,11.407-11.406c0-6.29-5.116-11.406-11.407-11.406
				c-6.291,0-11.407,5.115-11.407,11.405C62.374,72.071,67.49,77.187,73.781,77.187z M73.781,58.176
				c4.194,0,7.604,3.411,7.604,7.604c0,4.194-3.41,7.604-7.604,7.604c-4.194,0-7.605-3.41-7.605-7.604
				C66.176,61.587,69.587,58.176,73.781,58.176z"/>
			<rect x="64.275" y="80.988" fill="#949495" width="15.208" height="3.804"/>
			<path fill="#949495" d="M79.483,96.197H66.176v13.308h13.307V96.197L79.483,96.197z M75.682,105.703h-5.703V100h5.703V105.703z"
				/>
			<path fill="#949495" d="M66.176,128.518h13.307v-13.309H66.176V128.518z M69.979,119.011h5.703v5.703h-5.703V119.011z"/>
			<path fill="#949495" d="M113.703,96.198h-13.307v13.308h13.307V96.198L113.703,96.198z M109.9,105.703h-5.703V100h5.703V105.703z
				"/>
			<rect x="98.495" y="60.077" fill="#949495" width="26.616" height="3.803"/>
			<rect x="98.495" y="71.483" fill="#949495" width="34.22" height="3.802"/>
			<rect x="98.495" y="82.891" fill="#949495" width="34.22" height="3.802"/>
			<rect x="83.286" y="98.1" fill="#949495" width="9.506" height="3.8"/>
			<rect x="83.286" y="105.703" fill="#949495" width="9.506" height="3.803"/>
			<rect x="117.506" y="98.1" fill="#949495" width="9.506" height="3.8"/>
			<rect x="117.506" y="105.703" fill="#949495" width="9.506" height="3.803"/>
			<rect x="83.286" y="120.911" fill="#949495" width="9.506" height="3.803"/>
			<rect x="66.176" y="136.12" fill="#949495" width="34.22" height="3.802"/>
			<rect x="66.176" y="143.725" fill="#949495" width="34.22" height="3.803"/>
			<rect x="83.286" y="80.988" fill="#949495" width="3.802" height="3.804"/>
			<rect x="132.714" y="147.527" fill="#949495" width="3.802" height="3.801"/>
			<rect x="125.109" y="147.527" fill="#949495" width="3.803" height="3.801"/>
			<rect x="56.671" y="147.527" fill="#949495" width="3.803" height="3.801"/>
		</g>
	</g>
</g>
</svg>
