<?xml version="1.0" encoding="utf-8"?>
<!-- Generator: Adobe Illustrator 16.0.0, SVG Export Plug-In . SVG Version: 6.00 Build 0)  -->
<!DOCTYPE svg PUBLIC "-//W3C//DTD SVG 1.1//EN" "http://www.w3.org/Graphics/SVG/1.1/DTD/svg11.dtd">
<svg version="1.1" id="圖層_1" xmlns="http://www.w3.org/2000/svg" xmlns:xlink="http://www.w3.org/1999/xlink" x="0px" y="0px"
	 width="200px" height="200px" viewBox="0 0 200 200" enable-background="new 0 0 200 200" xml:space="preserve">
<circle fill="#129242" cx="100" cy="100" r="100"/>
<g>
	<g>
		<g>
			<path fill="#FFFFFF" d="M153.932,68.81c-7.502-4.96-13.223-12.088-16.537-20.614c-0.211-0.542-0.658-0.958-1.215-1.13
				c-10.459-3.242-22.971-4.956-36.18-4.956s-25.721,1.714-36.182,4.955c-0.555,0.173-1.002,0.589-1.213,1.13
				C59.289,56.722,53.57,63.85,46.066,68.81c-0.586,0.388-0.912,1.065-0.848,1.767c1.006,10.832,4.824,47.298,11.797,61.728
				c4.404,9.118,20.947,25.44,42.465,31.515c0.17,0.048,0.346,0.071,0.52,0.071s0.348-0.023,0.518-0.071
				c21.52-6.074,38.061-22.396,42.467-31.515c6.971-14.43,10.791-50.896,11.795-61.728C154.844,69.875,154.52,69.197,153.932,68.81z
				 M139.549,130.645c-1.662,3.441-6.08,9.287-13.494,15.373c-5.531,4.541-14.514,10.62-26.055,13.981
				c-11.541-3.361-20.525-9.44-26.057-13.981c-7.414-6.086-11.832-11.932-13.494-15.373c-6.576-13.612-10.398-49.616-11.326-59.301
				c7.445-5.187,13.189-12.378,16.689-20.9c9.924-2.958,21.721-4.52,34.188-4.52c12.465,0,24.264,1.562,34.186,4.521
				c3.502,8.521,9.244,15.713,16.691,20.899C149.947,81.028,146.127,117.032,139.549,130.645z"/>
		</g>
	</g>
	<g>
		<g>
			<path fill="#FFFFFF" d="M141.316,74.508c-2.52-2.198-4.852-4.642-6.932-7.263c-0.654-0.825-1.854-0.963-2.678-0.309
				c-0.826,0.654-0.965,1.854-0.311,2.68c2.018,2.541,4.254,4.926,6.664,7.102c-3.008,27.558-6.869,43.174-9.5,48.619
				c-1.908,3.95-12.094,15.145-26.654,21.083V84.696c0-1.054-0.854-1.907-1.906-1.907c-1.055,0-1.908,0.854-1.908,1.907v61.724
				c-14.561-5.939-24.746-17.133-26.654-21.083c-0.357-0.739-0.725-1.627-1.092-2.64c-0.357-0.99-1.451-1.502-2.441-1.145
				c-0.99,0.358-1.502,1.452-1.145,2.442c0.412,1.136,0.83,2.145,1.244,3c2.547,5.273,14.732,18.14,31.363,23.991
				c0.205,0.071,0.418,0.107,0.631,0.107c0.215,0,0.43-0.036,0.633-0.107c16.629-5.851,28.816-18.719,31.363-23.991
				c4.271-8.84,7.947-32.063,9.963-50.847C142.023,75.529,141.785,74.917,141.316,74.508z"/>
		</g>
	</g>
	<g>
		<g>
			<path fill="#FFFFFF" d="M130.297,61.346c-0.602-1.001-1.18-2.034-1.721-3.074c-0.254-0.491-0.711-0.848-1.25-0.976
				c-8.219-1.951-17.666-2.981-27.326-2.981s-19.109,1.03-27.326,2.981c-0.539,0.128-0.996,0.484-1.252,0.976
				c-3.227,6.213-7.512,11.677-12.738,16.237c-0.469,0.408-0.709,1.021-0.643,1.64c1.652,15.402,3.949,29.801,6.297,39.501
				c0.211,0.872,0.992,1.458,1.852,1.458c0.148,0,0.299-0.018,0.451-0.054c1.021-0.248,1.65-1.278,1.404-2.302
				c-2.264-9.343-4.479-23.159-6.105-38.034c5.031-4.544,9.215-9.887,12.453-15.906c7.191-1.634,15.33-2.548,23.699-2.67v6.214
				c0,1.053,0.855,1.907,1.908,1.907s1.906-0.854,1.906-1.907v-6.214c8.371,0.122,16.51,1.037,23.701,2.67
				c0.453,0.845,0.932,1.683,1.422,2.499c0.543,0.903,1.715,1.194,2.617,0.651C130.547,63.42,130.84,62.247,130.297,61.346z"/>
		</g>
	</g>
	<g>
		<g>
			<path fill="#FFFFFF" d="M100,70.584c-1.053,0-1.908,0.854-1.908,1.907v4.069c0,1.053,0.854,1.907,1.908,1.907
				c1.053,0,1.906-0.854,1.906-1.907v-4.069C101.906,71.438,101.053,70.584,100,70.584z"/>
		</g>
	</g>
</g>
</svg>
